<svg xmlns="http://www.w3.org/2000/svg" version="1.1" xmlns:xlink="http://www.w3.org/1999/xlink" xmlns:svgjs="http://svgjs.dev/svgjs" width="1000" height="750" viewBox="0 0 1000 750"><rect width="1000" height="750" fill="#ffffff"></rect><g transform="matrix(0.834,0,0,0.834,82.49454545454546,233.92887645741493)"><svg xmlns="http://www.w3.org/2000/svg" version="1.1" xmlns:xlink="http://www.w3.org/1999/xlink" xmlns:svgjs="http://svgjs.com/svgjs" viewBox="0 0 396 134" data-background-color="#0c1d36" preserveAspectRatio="xMidYMid meet" height="338" width="1000"><defs></defs><g id="tight-bounds" transform="matrix(1,0,0,1,0.2400000000000091,0.05947864680939574)"><svg viewBox="0 0 395.52 133.8809665094041" height="133.8809665094041" width="395.52"><g><svg viewBox="0 0 395.52 133.8809665094041" height="133.8809665094041" width="395.52"><g><svg viewBox="0 0 669.9326323346972 226.76787093739514" height="133.8809665094041" width="395.52"><g transform="matrix(1,0,0,1,274.4126323346972,19.847701506210527)"><svg viewBox="0 0 395.52 187.0724679249741" height="187.0724679249741" width="395.52"><g><svg viewBox="0 0 395.52 187.0724679249741" height="187.0724679249741" width="395.52"><g><rect width="75.54432" height="9.100149426884691" y="151.35224695907402" fill="#000000" data-fill-palette-color="tertiary"></rect><rect width="75.54432" height="9.100149426884691" y="151.35224695907402" x="319.97568" fill="#000000" data-fill-palette-color="tertiary"></rect></g><g><svg viewBox="0 0 395.52 100.90979472140761" height="100.90979472140761" width="395.52"><g transform="matrix(1,0,0,1,0,0)"><svg width="395.52" viewBox="1.45 -33.75 136.39000000000001 34.8" height="100.90979472140761" data-palette-color="#f9cc0b"><path d="M2.5-27.5Q2.5-28.2 2.93-28.63 3.35-29.05 4.1-29.4L4.1-29.4Q4.35-29.55 5.93-30.3 7.5-31.05 8.95-31.45L8.95-31.45Q9.4-32.45 10.33-33.1 11.25-33.75 12.7-33.75L12.7-33.75Q13.55-33.75 14.1-33.43 14.65-33.1 14.85-32.6L14.85-32.6Q16.7-33.2 19.3-33.2L19.3-33.2Q22.55-33.2 24.93-31.83 27.3-30.45 28.53-28.05 29.75-25.65 29.75-22.65L29.75-22.65Q29.75-22.05 29.6-21L29.6-21Q27.55-9.3 12.1-9.3L12.1-9.3Q10.7-9.3 10.05-9.35L10.05-9.35 9.4-6.95Q8.35-3.1 8.35-3L8.35-3Q7.95-1.25 7.13-0.3 6.3 0.65 4.45 0.65L4.45 0.65Q2.9 0.65 2.18 0.13 1.45-0.4 1.45-1.65L1.45-1.65Q1.45-2.2 1.6-2.7L1.6-2.7 7.65-26.05Q5.05-25.3 3.7-24L3.7-24Q3.15-24.6 2.83-25.58 2.5-26.55 2.5-27.5L2.5-27.5ZM11.1-14Q11.7-13.95 12.8-13.95L12.8-13.95Q17.55-13.95 20.33-15.75 23.1-17.55 23.9-21.3L23.9-21.3Q24.05-22.15 24.05-22.55L24.05-22.55Q24.05-25.35 22.5-26.73 20.95-28.1 18.15-28.1L18.15-28.1Q16.65-28.1 14.3-27.4L14.3-27.4Q12.35-19.65 11.1-14L11.1-14ZM57.35-3.95Q57.95-3.85 58.75-2.85 59.55-1.85 59.55-1L59.55-1Q59.55-0.45 58.7-0.15L58.7-0.15Q58.4-0.05 57.72 0.23 57.05 0.5 56.5 0.6 55.95 0.7 55.25 0.7L55.25 0.7Q54.2 0.7 53.65 0.45L53.65 0.45Q52.25-0.15 50-2.35 47.75-4.55 45.65-7.38 43.55-10.2 42.55-12.65L42.55-12.65 42.25-12.65Q40.85-12.65 40.2-12.7L40.2-12.7Q38.7-7.15 37.7-3L37.7-3Q37.3-1.25 36.47-0.3 35.65 0.65 33.8 0.65L33.8 0.65Q32.25 0.65 31.52 0.13 30.8-0.4 30.8-1.65L30.8-1.65Q30.8-2.2 30.95-2.7L30.95-2.7 37-26.05Q34.4-25.3 33.05-24L33.05-24Q32.5-24.6 32.17-25.58 31.85-26.55 31.85-27.5L31.85-27.5Q31.85-28.2 32.27-28.63 32.7-29.05 33.45-29.4L33.45-29.4Q33.7-29.55 35.27-30.3 36.85-31.05 38.3-31.45L38.3-31.45Q38.75-32.45 39.67-33.1 40.6-33.75 42.05-33.75L42.05-33.75Q42.9-33.75 43.45-33.43 44-33.1 44.2-32.6L44.2-32.6Q46.05-33.2 48.65-33.2L48.65-33.2Q51.85-33.2 54.22-31.93 56.6-30.65 57.85-28.65 59.1-26.65 59.1-24.6L59.1-24.6Q59.1-20.05 56.17-17.32 53.25-14.6 48.65-13.45L48.65-13.45Q49.7-11.65 51.45-9.4 53.2-7.15 54.77-5.58 56.35-4 56.85-4L56.85-4 57.35-3.95ZM43.65-27.4Q42.2-21.6 41.25-17.35L41.25-17.35Q41.85-17.3 42.95-17.3L42.95-17.3Q45.35-17.3 47.75-18.03 50.15-18.75 51.77-20.2 53.4-21.65 53.4-23.8L53.4-23.8Q53.4-25.75 51.8-26.93 50.2-28.1 47.5-28.1L47.5-28.1Q46-28.1 43.65-27.4L43.65-27.4ZM66.75-25.9Q65.75-26.25 65.22-26.98 64.7-27.7 64.7-28.7L64.7-28.7Q64.7-30.15 66.65-31L66.65-31Q73.8-32.45 81.05-33.05L81.05-33.05Q83-32.2 83-30.75L83-30.75Q83-29.85 82.1-29 81.2-28.15 80.05-27.8L80.05-27.8 77.3-27.45Q76.45-23.7 73.4-11.3L73.4-11.3 72-5.7 75.85-6.1Q77.8-5.25 77.8-3.8L77.8-3.8Q77.8-2.9 76.9-2.05 76-1.2 74.85-0.85L74.85-0.85 72.85-0.6Q65.5 0.2 61.55 1.05L61.55 1.05Q60.55 0.7 60.02-0.03 59.5-0.75 59.5-1.75L59.5-1.75Q59.5-3.2 61.45-4.05L61.45-4.05Q63.95-4.55 65.25-4.75L65.25-4.75 70.75-26.6Q68.7-26.3 66.75-25.9L66.75-25.9ZM106.24-33Q108.14-33 109.39-32.45 110.64-31.9 110.69-31.2L110.69-31.2Q110.29-30.6 107.99-27.95L107.99-27.95 105.89-25.6Q100.84-19.6 97.97-16.48 95.09-13.35 93.54-12.25L93.54-12.25Q93.24-12.05 92.64-11.8L92.64-11.8Q92.39-9.95 90.99-4.25L90.99-4.25 90.44-2.05Q90.09-0.6 89.42-0.1 88.74 0.4 86.74 0.4L86.74 0.4Q85.24 0.4 84.59-0.1 83.94-0.6 83.94-1.9L83.94-1.9Q83.94-2.45 84.09-2.95L84.09-2.95 86.09-10.95Q86.19-11.2 86.29-11.8L86.29-11.8Q85.44-12.1 85.22-12.63 84.99-13.15 84.89-14.4L84.89-14.4Q84.59-18.2 84.39-20.35L84.39-20.35Q84.34-21.05 84.04-24.53 83.74-28 83.74-31.15L83.74-31.15Q83.74-31.9 84.82-32.43 85.89-32.95 87.54-32.95L87.54-32.95Q89.04-32.95 89.74-32.43 90.44-31.9 90.44-30.8L90.44-30.8 90.49-18.05 90.49-14.9Q94.54-20.6 99.67-26.8 104.79-33 106.24-33L106.24-33ZM130.09-11.1Q123.54-10 119.64-9.1L119.64-9.1Q118.44-7.2 118.09-6.55L118.09-6.55Q117.04-4.7 116.22-3.48 115.39-2.25 114.44-1.3L114.44-1.3Q113.39-0.25 112.72 0.2 112.04 0.65 111.14 0.65L111.14 0.65Q109.64 0.65 108.52-0.03 107.39-0.7 107.39-1.4L107.39-1.4Q107.49-1.5 108.49-3.63 109.49-5.75 112.19-8.95L112.19-8.95Q112.19-9.35 111.94-9.95 111.69-10.55 111.69-10.65L111.69-10.65Q111.69-12.1 116.24-14.15L116.24-14.15Q118.79-17.95 121.62-21.65 124.44-25.35 128.54-30.4L128.54-30.4Q129.54-31.65 131.09-32.45 132.64-33.25 134.19-33.25L134.19-33.25Q135.79-33.25 136.59-32.95 137.39-32.65 137.62-32.15 137.84-31.65 137.84-30.75L137.84-30.75Q137.64-29.25 137.59-28.5L137.59-28.5Q136.84-22.45 136.47-18.13 136.09-13.8 136.09-9.5L136.09-9.5Q136.09-5.55 136.44-2.25L136.44-2.25Q136.29-1.05 135.39-0.08 134.49 0.9 133.29 0.9L133.29 0.9Q130.99 0.9 130.27-0.25 129.54-1.4 129.54-4.15L129.54-4.15Q129.54-6.15 130.09-11.1L130.09-11.1ZM123.59-14.85Q124.49-15.05 126.34-15.3L126.34-15.3 130.34-15.9Q130.79-22.85 131.39-25.9L131.39-25.9Q129.44-23.6 123.59-14.85L123.59-14.85Z" opacity="1" transform="matrix(1,0,0,1,0,0)" fill="#000000" class="undefined-text-0" data-fill-palette-color="primary" id="text-0"></path></svg></g></svg></g><g transform="matrix(1,0,0,1,75.54432,124.73217542005864)"><svg viewBox="0 0 244.43135999999998 62.34029250491544" height="62.34029250491544" width="244.43135999999998"><g transform="matrix(1,0,0,1,8,0)"><svg width="228.43135999999998" viewBox="-1.03 -31.38 146.13 39.89" height="62.34029250491544" data-palette-color="#f9cc0b"><path d="M-0.11 7.82L-0.11 7.82Q-1.03 7.76-1.03 6.72L-1.03 6.72Q-1.03 6.32-0.75 5.92-0.46 5.52 0.4 5.52 1.26 5.52 1.95 5.4 2.64 5.29 2.99 4.83L2.99 4.83Q3.56 4.25 3.56 1.61L3.56 1.61 3.56-20Q3.56-20.86 4.08-21.35 4.6-21.84 5.11-21.84 5.63-21.84 5.98-21.7 6.32-21.55 6.55-21.26L6.55-21.26Q7.07-20.8 7.07-20L7.07-20 7.07 0.69Q7.07 2.76 6.9 4.2 6.72 5.63 6.09 6.55L6.09 6.55Q5 8.16 1.15 8.16L1.15 8.16 0.8 8.16Q0.52 8.16 0.2 8.05-0.11 7.93-0.11 7.82ZM7.7-29.43L7.7-29.43Q7.7-28.51 7.04-27.93 6.38-27.36 5.26-27.36 4.14-27.36 3.53-27.93 2.93-28.51 2.93-29.43L2.93-29.43Q2.93-30.23 3.53-30.8 4.14-31.38 5.29-31.38L5.29-31.38Q6.38-31.38 7.04-30.8 7.7-30.23 7.7-29.43ZM33.27-11.55L33.27-11.55Q33.27-10.34 31.89-10.23L31.89-10.23 16.15-10.23Q16.38-4.37 20.74-2.64L20.74-2.64Q21.95-2.24 23.5-2.24L23.5-2.24Q26.72-2.24 30.05-4.6L30.05-4.6Q31.09-5.17 31.78-4.48L31.78-4.48Q32.12-4.14 32.01-3.79L32.01-3.79Q32.01-2.99 31.61-2.64L31.61-2.64Q28.45 0.52 23.27 0.46L23.27 0.46Q18.56 0.46 15.69-2.59L15.69-2.59Q12.47-5.75 12.47-10.92L12.47-10.92Q12.47-15.69 15.11-18.79L15.11-18.79Q17.87-22.24 22.93-22.24L22.93-22.24Q27.99-22.24 30.63-19.2L30.63-19.2Q33.16-16.44 33.27-11.55ZM16.26-12.59L29.88-12.59Q29.71-15.69 27.87-17.7L27.87-17.7Q26.15-19.54 22.93-19.54L22.93-19.54Q20.17-19.54 18.22-17.47L18.22-17.47Q16.43-15.4 16.26-12.59L16.26-12.59ZM60.22-1.9L54.19-18.45 48.1-1.9Q47.47 0 45.66 0 43.85 0 43.33-1.84L43.33-1.84 36.72-19.48Q36.6-19.83 36.6-20.14 36.6-20.46 36.72-20.8 36.83-21.15 37.12-21.26L37.12-21.26Q37.75-21.72 38.21-21.84L38.21-21.84Q39.59-21.84 39.88-20.57L39.88-20.57 45.8-3.79 51.89-20Q52.47-21.72 54.31-21.84L54.31-21.84Q55.11-21.84 55.8-21.44 56.49-21.03 56.83-20L56.83-20 62.58-3.97 68.44-20.57Q68.85-21.84 69.94-21.84L69.94-21.84Q70.63-21.84 71.12-21.35 71.6-20.86 71.6-20.34 71.6-19.83 71.55-19.48L71.55-19.48 64.77-1.84Q64.19 0 62.58 0L62.58 0Q60.74 0 60.22-1.9L60.22-1.9ZM95.74-11.55L95.74-11.55Q95.74-10.34 94.36-10.23L94.36-10.23 78.61-10.23Q78.84-4.37 83.21-2.64L83.21-2.64Q84.42-2.24 85.97-2.24L85.97-2.24Q89.19-2.24 92.52-4.6L92.52-4.6Q93.56-5.17 94.25-4.48L94.25-4.48Q94.59-4.14 94.48-3.79L94.48-3.79Q94.48-2.99 94.07-2.64L94.07-2.64Q90.91 0.52 85.74 0.46L85.74 0.46Q81.03 0.46 78.15-2.59L78.15-2.59Q74.94-5.75 74.94-10.92L74.94-10.92Q74.94-15.69 77.58-18.79L77.58-18.79Q80.34-22.24 85.39-22.24L85.39-22.24Q90.45-22.24 93.1-19.2L93.1-19.2Q95.62-16.44 95.74-11.55ZM78.73-12.59L92.35-12.59Q92.18-15.69 90.34-17.7L90.34-17.7Q88.61-19.54 85.39-19.54L85.39-19.54Q82.64-19.54 80.68-17.47L80.68-17.47Q78.9-15.4 78.73-12.59L78.73-12.59ZM101.14-1.72L101.14-29.54Q101.14-30.46 101.71-30.86 102.29-31.26 102.75-31.26 103.21-31.26 103.5-31.21 103.78-31.15 104.07-30.86L104.07-30.86Q104.7-30.46 104.7-29.54L104.7-29.54 104.7-1.72Q104.7-0.86 104.13-0.43 103.55 0 102.86 0L102.86 0Q102.17 0 101.66-0.43 101.14-0.86 101.14-1.72L101.14-1.72ZM114.93-20.11L114.93-18.16Q116.31-22.24 120.96-22.24L120.96-22.24Q121.83-22.24 122.26-21.75 122.69-21.26 122.69-20.72 122.69-20.17 122.26-19.68 121.83-19.2 120.68-19.2 119.53-19.2 118.38-18.74 117.23-18.28 116.48-17.41L116.48-17.41Q114.93-15.52 114.93-12.41L114.93-12.41 114.93-1.61Q114.93-0.8 114.36-0.4 113.78 0 113.32 0 112.86 0 112.57-0.09 112.29-0.17 112-0.46L112-0.46Q111.48-0.8 111.48-1.61L111.48-1.61 111.48-20.11Q111.48-20.86 112-21.35 112.52-21.84 113.29-21.84 114.07-21.84 114.5-21.35 114.93-20.86 114.93-20.11L114.93-20.11ZM130.62 6.32L133.2-0.17 124.76-19.48Q124.58-19.83 124.58-20.17 124.58-20.52 124.76-20.83 124.93-21.15 125.16-21.26L125.16-21.26Q125.85-21.72 126.48-21.84L126.48-21.84Q127.69-21.84 128.2-20.69L128.2-20.69 135.04-4.14 141.82-20.69Q142.34-21.84 143.17-21.84 144.01-21.84 144.55-21.35 145.1-20.86 145.1-20.34 145.1-19.83 144.93-19.48L144.93-19.48 133.89 7.36Q133.38 8.51 132.28 8.51L132.28 8.51Q131.59 8.51 131.13 8.16L131.13 8.16Q130.44 7.59 130.44 7.07 130.44 6.55 130.62 6.32L130.62 6.32Z" opacity="1" transform="matrix(1,0,0,1,0,0)" fill="#000000" class="undefined-text-1" data-fill-palette-color="secondary" id="text-1"></path></svg></g></svg></g></svg></g></svg></g><g><svg viewBox="0 0 226.76787093739514 226.76787093739514" height="226.76787093739514" width="226.76787093739514"><g><svg xmlns="http://www.w3.org/2000/svg" version="1.1" xmlns:xlink="http://www.w3.org/1999/xlink" xmlns:svgjs="http://svgjs.com/svgjs"></svg></g><g id="icon-0"><svg viewBox="0 0 226.76787093739514 226.76787093739514" height="226.76787093739514" width="226.76787093739514"><g><path d="M0 113.384c0-62.62 50.764-113.384 113.384-113.384 62.62 0 113.384 50.764 113.384 113.384 0 62.62-50.764 113.384-113.384 113.384-62.62 0-113.384-50.764-113.384-113.384zM113.384 217.668c57.594 0 104.284-46.689 104.284-104.284 0-57.594-46.689-104.284-104.284-104.284-57.594 0-104.284 46.689-104.284 104.284 0 57.594 46.689 104.284 104.284 104.284z" data-fill-palette-color="tertiary" fill="#000000" stroke="transparent"></path></g><g transform="matrix(1,0,0,1,68.52750059238183,48.28611680025716)"><svg viewBox="0 0 89.71286975263149 130.19563733688082" height="130.19563733688082" width="89.71286975263149"><g><svg xmlns="http://www.w3.org/2000/svg" xmlns:xlink="http://www.w3.org/1999/xlink" version="1.1" x="0" y="0" viewBox="21.426000000000002 8.532000212172159 57.14732096445755 82.93494451329374" enable-background="new 0 0 100 100" xml:space="preserve" height="130.19563733688082" width="89.71286975263149" class="icon-symbol-0" fill="#f9cc0b" data-fill-palette-color="accent" id="symbol-0"><g fill="#f9cc0b" data-fill-palette-color="accent"><path d="M67.931 33.953C67.663 50.606 63.21 66.789 55.02 82.246c3.896 3.721 7.973 6.508 12.437 7.888 3.288 0.98 6.782 1.488 10.469 1.291C80.108 71.666 76.773 52.432 67.931 33.953z" fill="#000000" data-fill-palette-color="accent"></path><circle cx="63.882" cy="19.542" r="11" fill="#000000" data-fill-palette-color="accent"></circle><path d="M23.574 82.246c3.896 3.721 7.973 6.508 12.437 7.888 3.288 0.98 6.782 1.488 10.469 1.291 2.183-19.76-1.153-38.994-9.994-57.473C36.217 50.606 31.764 66.789 23.574 82.246z" fill="#000000" data-fill-palette-color="accent"></path><circle cx="32.436" cy="19.542" r="11" fill="#000000" data-fill-palette-color="accent"></circle></g></svg><g></g></g></svg></g></svg></g></svg></g></svg></g></svg></g></svg><rect width="395.52" height="133.8809665094041" fill="transparent" stroke="transparent"></rect></g></svg></g></svg>